# xmcd
#
# Track frame offsets:
# 150
# 16322
# 35815
# 49665
# 64615
# 78735
# 96917
# 117747
# 134635
# 145660
# 167647
# 179677
# 193917
# 209015
# 227827
#
# Disc length: 3214 seconds
#
# Revision: 1
# Processed by: cddbd v1.5.1PL0 Copyright (c) Steve Scherf et al.
# Submitted via: Easy CD Ripper v2.26
#
DISCID=e90c8c0f
DTITLE=Francisco Petrônio e Dilermando Reis - Serestas
DYEAR=1994
DGENRE=Pop
TTITLE0=Chão de estrelas - Francisco Petrônio e Dilermando
TTITLE1=Deusa da minha rua - Francisco Petrônio e Dilermando
TTITLE2=Cabelos cor de prata - Francisco Petrônio e Dilermando
TTITLE3=Lágrimas - Francisco Petrônio e Dilermando
TTITLE4=Malandrinha - Francisco Petrônio e Dilermando
TTITLE5=A voz do violão - Francisco Petrônio e Dilermando
TTITLE6=Pálida morena - Francisco Petrônio e Dilermando
TTITLE7=Minha serenata - Francisco Petrônio e Dilermando
TTITLE8=Rapaziada do braz - Francisco Petrônio e Dilermando
TTITLE9=A última estrofe - Francisco Petrônio e Dilermando
TTITLE10=Tardes de Lindóia - Francisco Petrônio e Dilermando
TTITLE11=Maringá - Francisco Petrônio e Dilermando
TTITLE12=Tormento - Francisco Petrônio e Dilermando
TTITLE13=Pequenina cruz do teu rosário - Francisco Petrônio e Dilermando
TTITLE14=Lua branca - Francisco Petrônio e Dilermando
EXTD=
EXTT0=
EXTT1=
EXTT2=
EXTT3=
EXTT4=
EXTT5=
EXTT6=
EXTT7=
EXTT8=
EXTT9=
EXTT10=
EXTT11=
EXTT12=
EXTT13=
EXTT14=
PLAYORDER=
